<svg width="100" height="100" viewBox="0 0 100 100" fill="none" xmlns="http://www.w3.org/2000/svg">
<g clip-path="url(#clip0_27_115)">
<path d="M28.7615 31.9807C27.8851 31.105 27.3934 29.922 27.3934 28.6893C27.3934 27.4565 27.8851 26.2737 28.7615 25.3979L48.7099 5.65925C49.5915 4.78988 50.7852 4.30176 52.0296 4.30176C53.274 4.30176 54.4677 4.78988 55.3494 5.65925C56.2306 6.53249 56.7256 7.71632 56.7256 8.95065C56.7256 10.185 56.2306 11.3688 55.3494 12.2421L35.4109 31.9807C34.5263 32.8483 33.3314 33.335 32.0862 33.335C30.841 33.335 29.6461 32.8483 28.7615 31.9807Z" stroke="white" stroke-width="2.71" stroke-linecap="round" stroke-linejoin="round"/>
<path d="M47.7945 2.54409L47.4086 2.16198C46.2923 1.05694 44.4826 1.05695 43.3663 2.16199L25.2536 20.0932C24.1373 21.1983 24.1374 22.9899 25.2536 24.0949L25.6396 24.477C26.7558 25.5821 28.5655 25.5821 29.6818 24.477L47.7945 6.5458C48.9108 5.44076 48.9108 3.64913 47.7945 2.54409Z" stroke="white" stroke-width="2.71" stroke-linecap="round" stroke-linejoin="round"/>
<path d="M59.7856 62.6744C60.6703 63.542 61.8651 64.0287 63.1104 64.0287C64.3556 64.0287 65.5505 63.542 66.4351 62.6744L86.3735 42.9357C87.2499 42.06 87.7416 40.8771 87.7416 39.6443C87.7416 38.4116 87.2499 37.2287 86.3735 36.3529C85.4889 35.4853 84.2941 34.9986 83.0488 34.9986C81.8036 34.9986 80.6087 35.4853 79.7241 36.3529L59.7856 56.0916C58.9093 56.9673 58.4176 58.1502 58.4176 59.383C58.4176 60.6157 58.9093 61.7986 59.7856 62.6744Z" stroke="white" stroke-width="2.71" stroke-linecap="round" stroke-linejoin="round"/>
<path d="M67.3504 65.769L67.7363 66.1511C68.8526 67.2561 70.6623 67.2561 71.7786 66.1511L89.8913 48.2198C91.0075 47.1148 91.0076 45.3232 89.8913 44.2181L89.5054 43.836C88.3891 42.731 86.5794 42.731 85.4631 43.836L67.3504 61.7673C66.2341 62.8723 66.2341 64.6639 67.3504 65.769Z" stroke="white" stroke-width="2.71" stroke-linecap="round" stroke-linejoin="round"/>
<path d="M78.6203 37.4472L54.2477 13.3189L36.5209 30.8681L60.8935 54.9964L78.6203 37.4472Z" stroke="white" stroke-width="2.71" stroke-linecap="round" stroke-linejoin="round"/>
<path d="M50.3805 44.5754L47.0541 41.2823L35.9731 52.2523L39.2995 55.5454L50.3805 44.5754Z" stroke="white" stroke-width="2.71" stroke-linecap="round" stroke-linejoin="round"/>
<path d="M38.4588 59.1117L32.3674 53.0814L1.34906 83.7889L7.44045 89.8192L38.4588 59.1117Z" stroke="white" stroke-width="2.71" stroke-linecap="round" stroke-linejoin="round"/>
<path d="M33.1977 49.5088L42.0603 58.2826C42.3513 58.5764 42.5142 58.9715 42.5142 59.383C42.5142 59.7945 42.3513 60.1895 42.0603 60.4834C41.7651 60.7708 41.3677 60.9319 40.9537 60.9319C40.5397 60.9319 40.1423 60.7708 39.8471 60.4834L30.9746 51.7096C30.6836 51.4157 30.5206 51.0207 30.5206 50.6092C30.5206 50.1977 30.6836 49.8026 30.9746 49.5088C31.2714 49.2207 31.6705 49.0594 32.0861 49.0594C32.5018 49.0594 32.9008 49.2207 33.1977 49.5088Z" stroke="white" stroke-width="2.71" stroke-linecap="round" stroke-linejoin="round"/>
<path d="M94.2239 98.6736C96.6685 98.6736 98.6503 96.7117 98.6503 94.2916C98.6503 91.8715 96.6685 89.9096 94.2239 89.9096H67.6657C65.2211 89.9096 63.2394 91.8715 63.2394 94.2916C63.2394 96.7117 65.2211 98.6736 67.6657 98.6736H94.2239Z" stroke="white" stroke-width="2.71" stroke-linecap="round" stroke-linejoin="round"/>
<path d="M95.7026 87.2372V86.7164C95.7026 85.2459 94.4985 84.0538 93.0131 84.0538H68.8765C67.3911 84.0538 66.187 85.2459 66.187 86.7164V87.2372C66.187 88.7077 67.3911 89.8998 68.8765 89.8998H93.0131C94.4985 89.8998 95.7026 88.7077 95.7026 87.2372Z" stroke="white" stroke-width="2.71" stroke-linecap="round" stroke-linejoin="round"/>
</g>
<defs>
<clipPath id="clip0_27_115">
<rect width="100" height="100" fill="white"/>
</clipPath>
</defs>
</svg>
