<svg width="100" height="100" viewBox="0 0 100 100" fill="none" xmlns="http://www.w3.org/2000/svg">
<path d="M21.9961 9.07434C21.0468 10.4145 19.79 11.5076 18.3312 12.262C16.8724 13.0164 15.254 13.4101 13.6117 13.4101C11.9693 13.4101 10.3509 13.0164 8.89211 12.262C7.43329 11.5076 6.17659 10.4145 5.2273 9.07434C4.3748 10.3595 3.9169 11.866 3.91003 13.4082V91.4824H23.3002V13.4082C23.2904 11.8683 22.8377 10.3638 21.9961 9.07434Z" stroke="white" stroke-width="2.57" stroke-linecap="round" stroke-linejoin="round"/>
<path d="M18.4525 18.7694H8.75745V72.0923H18.4525V18.7694Z" stroke="white" stroke-width="2.57" stroke-linecap="round" stroke-linejoin="round"/>
<path d="M18.4525 76.9266H8.75745V86.6217H18.4525V76.9266Z" stroke="white" stroke-width="2.57" stroke-linecap="round" stroke-linejoin="round"/>
<path d="M41.373 9.07434C40.4252 10.4145 39.1697 11.5077 37.7119 12.2622C36.2542 13.0167 34.6367 13.4104 32.9952 13.4104C31.3538 13.4104 29.7363 13.0167 28.2785 12.2622C26.8207 11.5077 25.5653 10.4145 24.6174 9.07434C23.7649 10.3595 23.307 11.866 23.3002 13.4082V91.4824H42.6903V13.4082C42.6834 11.866 42.2255 10.3595 41.373 9.07434Z" stroke="white" stroke-width="2.57" stroke-linecap="round" stroke-linejoin="round"/>
<path d="M37.8426 18.7694H28.1476V72.0923H37.8426V18.7694Z" stroke="white" stroke-width="2.57" stroke-linecap="round" stroke-linejoin="round"/>
<path d="M37.8426 76.9266H28.1476V86.6217H37.8426V76.9266Z" stroke="white" stroke-width="2.57" stroke-linecap="round" stroke-linejoin="round"/>
<path d="M60.7631 9.07434C59.8152 10.4145 58.5598 11.5077 57.102 12.2622C55.6442 13.0167 54.0267 13.4104 52.3853 13.4104C50.7438 13.4104 49.1263 13.0167 47.6686 12.2622C46.2108 11.5077 44.9553 10.4145 44.0075 9.07434C43.1549 10.3595 42.6971 11.866 42.6902 13.4082V91.4824H62.0803V13.4082C62.0735 11.866 61.6156 10.3595 60.7631 9.07434Z" stroke="white" stroke-width="2.57" stroke-linecap="round" stroke-linejoin="round"/>
<path d="M57.2329 18.7694H47.5378V72.0923H57.2329V18.7694Z" stroke="white" stroke-width="2.57" stroke-linecap="round" stroke-linejoin="round"/>
<path d="M57.2329 76.9266H47.5378V86.6217H57.2329V76.9266Z" stroke="white" stroke-width="2.57" stroke-linecap="round" stroke-linejoin="round"/>
<path d="M78.2171 17.9263C77.6818 19.2543 76.8364 20.435 75.7516 21.3695C74.6667 22.3041 73.3739 22.9653 71.9812 23.298C70.5885 23.6307 69.1364 23.6252 67.7463 23.2819C66.3561 22.9386 65.0684 22.2676 63.9906 21.3248C63.5342 22.5921 63.4519 23.9639 63.7536 25.2766L71.6571 58.3795L77.7956 84.132L79.5607 91.4955L96.0002 87.5437L94.2482 80.1802L88.0966 54.4277L80.193 21.3248C79.8749 20.0255 79.1888 18.8455 78.2171 17.9263Z" stroke="white" stroke-width="2.71" stroke-linecap="round" stroke-linejoin="round"/>
<path d="M77.1743 26.8579L68.9487 28.822L79.7486 74.0499L87.9742 72.0858L77.1743 26.8579Z" stroke="white" stroke-width="2.71" stroke-linecap="round" stroke-linejoin="round"/>
<path d="M88.9581 76.1854L80.7325 78.1495L82.6967 86.3751L90.9223 84.411L88.9581 76.1854Z" stroke="white" stroke-width="2.71" stroke-linecap="round" stroke-linejoin="round"/>
</svg>
