<svg width="100" height="100" viewBox="0 0 100 100" fill="none" xmlns="http://www.w3.org/2000/svg">
<g clip-path="url(#clip0_39_336)">
<path d="M25.6908 71.8793H29.5602V13.8389C26.9473 13.9232 24.4695 15.0198 22.65 16.8969C20.8306 18.7741 19.812 21.285 19.8093 23.8992V74.5105C20.5431 73.6752 21.4483 73.0077 22.4632 72.5537C23.4781 72.0997 24.579 71.8696 25.6908 71.8793Z" fill="#131313"/>
<path d="M75.9925 13.8389H31.4175V18.6369H75.9925V13.8389Z" fill="#131313"/>
<path d="M19.8093 79.6179C19.8093 81.1777 20.429 82.6737 21.532 83.7767C22.635 84.8797 24.131 85.4993 25.6908 85.4993H72.8971V82.5586H36.0606C35.8144 82.5586 35.5782 82.4608 35.404 82.2866C35.2299 82.1124 35.132 81.8763 35.132 81.63C35.132 81.3837 35.2299 81.1475 35.404 80.9733C35.5782 80.7992 35.8144 80.7013 36.0606 80.7013H72.8971V73.7365H25.6908C24.131 73.7365 22.635 74.3561 21.532 75.4591C20.429 76.5621 19.8093 78.058 19.8093 79.6179Z" fill="#131313"/>
<path d="M50.4549 46.1868C50.2715 46.3694 50.1258 46.5864 50.0265 46.8255C49.9272 47.0645 49.8761 47.3209 49.8761 47.5797C49.8761 47.8386 49.9272 48.0949 50.0265 48.3339C50.1258 48.573 50.2715 48.79 50.4549 48.9727L61.4438 59.9617C61.6231 60.1524 61.8387 60.3054 62.0779 60.4118C62.3171 60.5181 62.5751 60.5755 62.8369 60.5808C63.3437 60.5787 63.8313 60.3869 64.2037 60.0431C64.5761 59.6993 64.8064 59.2285 64.8489 58.7234C64.8482 58.461 64.7927 58.2016 64.6861 57.9617C64.5795 57.7219 64.4241 57.5069 64.2298 57.3305L53.2408 46.3415C53.0793 46.1316 52.8744 45.959 52.6401 45.8355C52.4058 45.712 52.1478 45.6405 51.8833 45.6258C51.6189 45.6111 51.3544 45.6536 51.1079 45.7504C50.8613 45.8472 50.6387 45.996 50.4549 46.1868Z" fill="#131313"/>
<path d="M11.142 83.4874C10.3621 83.4874 9.61413 83.7972 9.06264 84.3487C8.51115 84.9002 8.20129 85.6482 8.20129 86.4281C8.20292 86.8067 8.28126 87.181 8.4316 87.5285C8.58195 87.876 8.80121 88.1894 9.07606 88.4498C9.35091 88.7102 9.67565 88.9121 10.0307 89.0435C10.3858 89.1748 10.7639 89.2329 11.142 89.214C11.922 89.214 12.67 88.9042 13.2215 88.3527C13.7729 87.8012 14.0828 87.0532 14.0828 86.2733C14.0812 85.8947 14.0028 85.5204 13.8525 85.1729C13.7021 84.8254 13.4829 84.512 13.208 84.2516C12.9332 83.9913 12.6084 83.7893 12.2534 83.6579C11.8983 83.5266 11.5202 83.4685 11.142 83.4874Z" fill="#131313"/>
<path d="M66.8608 29.7806C66.6773 29.9632 66.5318 30.1803 66.4325 30.4193C66.3331 30.6584 66.282 30.9147 66.282 31.1735C66.282 31.4324 66.3331 31.6887 66.4325 31.9278C66.5318 32.1668 66.6773 32.3839 66.8608 32.5665L77.8497 43.5555C78.2305 43.9138 78.7217 44.1321 79.2427 44.1746C79.7739 44.1666 80.281 43.952 80.6566 43.5764C81.0322 43.2008 81.2468 42.6937 81.2548 42.1625C81.2541 41.9001 81.1986 41.6406 81.092 41.4008C80.9854 41.161 80.8301 40.946 80.6357 40.7696L69.6467 29.7806C69.4641 29.5971 69.2471 29.4515 69.008 29.3522C68.769 29.2529 68.5126 29.2018 68.2538 29.2018C67.9949 29.2018 67.7386 29.2529 67.4996 29.3522C67.2605 29.4515 67.0434 29.5971 66.8608 29.7806Z" fill="#131313"/>
<path d="M65.4679 55.7827C66.1564 56.5483 66.5417 57.539 66.5513 58.5687C66.5554 59.078 66.4582 59.5829 66.2652 60.0543C66.0722 60.5256 65.7874 60.9538 65.4272 61.3139C65.0671 61.674 64.6388 61.9589 64.1675 62.1519C63.6962 62.3449 63.1912 62.4422 62.6819 62.438C61.656 62.4096 60.6716 62.0267 59.896 61.3546L48.9071 50.3656C48.1887 49.6472 47.7851 48.673 47.7851 47.657C47.7851 46.6411 48.1887 45.6668 48.9071 44.9485C49.6254 44.2301 50.5997 43.8266 51.6156 43.8266C52.6315 43.8266 53.6058 44.2301 54.3242 44.9485L65.3131 33.9595C64.5948 33.2411 64.1912 32.2668 64.1912 31.2509C64.1912 30.235 64.5948 29.2607 65.3131 28.5424C66.0315 27.824 67.0058 27.4205 68.0217 27.4205C69.0376 27.4205 70.0119 27.824 70.7302 28.5424L75.8378 33.65V20.6489H31.4175V67.0813H37.299V65.8431C37.299 64.6526 37.7718 63.511 38.6136 62.6692C39.4553 61.8275 40.597 61.3546 41.7874 61.3546H53.0859C54.2763 61.3546 55.4181 61.8275 56.2598 62.6692C57.1016 63.511 57.5744 64.6526 57.5744 65.8431V67.0813H59.5865C59.8327 67.0813 60.0689 67.1791 60.2431 67.3532C60.4173 67.5274 60.5152 67.7636 60.5152 68.0099C60.5152 68.2562 60.4173 68.4924 60.2431 68.6666C60.0689 68.8407 59.8327 68.9385 59.5865 68.9385H31.5723V71.8792H76.1473V60.8903L68.4086 53.1516L65.4679 55.7827ZM37.299 25.4469H47.0498C47.2901 25.4648 47.516 25.5684 47.6865 25.7388C47.8569 25.9092 47.9605 26.1352 47.9784 26.3756C47.951 26.6396 47.8233 26.8831 47.6218 27.0559C47.4202 27.2286 47.1601 27.3175 46.8949 27.3042H37.1442C36.9038 27.2863 36.6779 27.1827 36.5074 27.0123C36.337 26.8419 36.2334 26.6159 36.2155 26.3756C36.2429 26.1115 36.3706 25.868 36.5722 25.6953C36.7737 25.5225 37.0339 25.4336 37.299 25.4469ZM37.299 29.3163H54.7885C55.0348 29.3163 55.271 29.4141 55.4451 29.5883C55.6193 29.7624 55.7171 29.9986 55.7171 30.2449C55.7171 30.4912 55.6193 30.7274 55.4451 30.9016C55.271 31.0757 55.0348 31.1736 54.7885 31.1736H37.299C37.0586 31.1557 36.8326 31.0521 36.6622 30.8817C36.4918 30.7112 36.3882 30.4853 36.3703 30.2449C36.366 30.1218 36.387 29.9991 36.4322 29.8845C36.4773 29.7699 36.5456 29.6658 36.6327 29.5786C36.7198 29.4915 36.8239 29.4233 36.9385 29.3781C37.0531 29.333 37.1759 29.3119 37.299 29.3163ZM37.299 33.1856H54.7885C55.0288 33.2035 55.2548 33.3071 55.4252 33.4775C55.5956 33.648 55.6992 33.8739 55.7171 34.1143C55.6897 34.3783 55.562 34.6218 55.3605 34.7946C55.1589 34.9673 54.8988 35.0562 54.6337 35.0429H37.299C37.0586 35.0251 36.8326 34.9215 36.6622 34.751C36.4918 34.5806 36.3882 34.3546 36.3703 34.1143C36.366 33.9912 36.387 33.8685 36.4322 33.7538C36.4773 33.6392 36.5456 33.5351 36.6327 33.448C36.7198 33.3609 36.8239 33.2926 36.9385 33.2475C37.0531 33.2024 37.1759 33.1813 37.299 33.1856ZM37.299 38.9123C37.0527 38.9123 36.8164 38.8144 36.6423 38.6403C36.4681 38.4661 36.3703 38.2299 36.3703 37.9836C36.3703 37.7373 36.4681 37.5012 36.6423 37.327C36.8164 37.1528 37.0527 37.055 37.299 37.055H54.7885C55.0348 37.055 55.271 37.1528 55.4451 37.327C55.6193 37.5012 55.7171 37.7373 55.7171 37.9836C55.7171 38.2299 55.6193 38.4661 55.4451 38.6403C55.271 38.8144 55.0348 38.9123 54.7885 38.9123H37.299Z" fill="#131313"/>
<path d="M66.8448 35.2872L55.9006 46.2314L64.1088 54.4396L75.053 43.4954L66.8448 35.2872Z" fill="#131313"/>
<path d="M53.086 63.0572H41.7875C41.4414 63.0551 41.0984 63.1218 40.7782 63.2533C40.458 63.3848 40.1672 63.5785 39.9224 63.8233C39.6777 64.068 39.4839 64.3588 39.3524 64.679C39.2209 64.9991 39.1542 65.3422 39.1563 65.6883V66.9265H55.5624V65.6883C55.5836 65.3503 55.5352 65.0116 55.4203 64.6931C55.3053 64.3745 55.1263 64.0829 54.8942 63.8363C54.6621 63.5897 54.3819 63.3933 54.0709 63.2593C53.7599 63.1253 53.4246 63.0565 53.086 63.0572Z" fill="#131313"/>
<path d="M86.8267 66.3073C87.0101 66.1247 87.1557 65.9076 87.255 65.6685C87.3543 65.4295 87.4054 65.1731 87.4054 64.9143C87.4054 64.6554 87.3543 64.3992 87.255 64.1601C87.1557 63.9211 87.0101 63.704 86.8267 63.5213L72.2779 48.9725L69.4919 51.7585L84.0407 66.3073C84.22 66.498 84.4355 66.651 84.6747 66.7573C84.914 66.8636 85.172 66.9211 85.4337 66.9264C85.9448 66.8475 86.4256 66.6338 86.8267 66.3073Z" fill="#131313"/>
<path d="M92.3988 20.4941C92.3988 19.5451 92.1173 18.6175 91.5901 17.8284C91.0629 17.0394 90.3136 16.4244 89.4369 16.0613C88.5601 15.6981 87.5955 15.6031 86.6647 15.7882C85.734 15.9734 84.879 16.4303 84.208 17.1013C83.537 17.7723 83.0801 18.6273 82.8949 19.558C82.7098 20.4887 82.8048 21.4534 83.1679 22.3302C83.5311 23.2069 84.1461 23.9562 84.9351 24.4834C85.7242 25.0107 86.6518 25.2921 87.6008 25.2921C88.8708 25.284 90.0865 24.7758 90.9845 23.8778C91.8826 22.9797 92.3907 21.7641 92.3988 20.4941Z" fill="#131313"/>
<path d="M85.1242 31.1735C85.3997 31.1735 85.669 31.2552 85.8981 31.4082C86.1272 31.5613 86.3057 31.7788 86.4112 32.0333C86.5166 32.2879 86.5442 32.568 86.4904 32.8382C86.4367 33.1084 86.3041 33.3566 86.1092 33.5514C85.9144 33.7462 85.6662 33.8789 85.396 33.9326C85.1258 33.9864 84.8457 33.9588 84.5912 33.8534C84.3366 33.748 84.1191 33.5694 83.9661 33.3403C83.813 33.1113 83.7313 32.8419 83.7313 32.5664C83.7313 32.197 83.878 31.8427 84.1392 31.5815C84.4005 31.3202 84.7548 31.1735 85.1242 31.1735Z" fill="#131313"/>
<path d="M91.0056 52.5325C91.2811 52.5325 91.5505 52.6142 91.7796 52.7673C92.0086 52.9203 92.1872 53.1379 92.2926 53.3924C92.398 53.6469 92.4256 53.927 92.3719 54.1972C92.3181 54.4674 92.1854 54.7156 91.9906 54.9104C91.7958 55.1052 91.5476 55.2379 91.2774 55.2917C91.0072 55.3454 90.7271 55.3178 90.4726 55.2124C90.2181 55.107 90.0005 54.9284 89.8474 54.6994C89.6944 54.4703 89.6127 54.201 89.6127 53.9255C89.6127 53.556 89.7594 53.2017 90.0207 52.9405C90.2819 52.6792 90.6361 52.5325 91.0056 52.5325Z" fill="#131313"/>
<path d="M72.5876 6.1001C72.8631 6.1001 73.1324 6.18183 73.3615 6.3349C73.5905 6.48796 73.7691 6.7055 73.8745 6.96003C73.9799 7.21456 74.0075 7.49463 73.9538 7.76484C73.9 8.03505 73.7674 8.28325 73.5726 8.47806C73.3778 8.67287 73.1296 8.80554 72.8594 8.85929C72.5892 8.91303 72.309 8.88546 72.0545 8.78003C71.8 8.6746 71.5824 8.49605 71.4293 8.26698C71.2763 8.03791 71.1946 7.76861 71.1946 7.49311C71.1946 7.12367 71.3413 6.76933 71.6026 6.5081C71.8638 6.24687 72.2181 6.1001 72.5876 6.1001Z" fill="#131313"/>
<path d="M11.6063 10.8981C11.8818 10.8981 12.1511 10.9798 12.3802 11.1328C12.6092 11.2859 12.7878 11.5035 12.8932 11.758C12.9986 12.0125 13.0262 12.2926 12.9725 12.5628C12.9187 12.833 12.7861 13.0812 12.5913 13.276C12.3965 13.4708 12.1483 13.6035 11.8781 13.6573C11.6079 13.711 11.3277 13.6834 11.0732 13.578C10.8187 13.4726 10.6012 13.294 10.4481 13.065C10.2951 12.8359 10.2134 12.5665 10.2134 12.291C10.2134 11.9216 10.3601 11.5673 10.6213 11.3061C10.8825 11.0448 11.2369 10.8981 11.6063 10.8981Z" fill="#131313"/>
<path d="M12.5351 34.1143C12.8106 34.1143 13.0799 34.1959 13.309 34.349C13.538 34.5021 13.7166 34.7197 13.822 34.9742C13.9275 35.2287 13.955 35.5088 13.9013 35.779C13.8475 36.0492 13.7148 36.2974 13.52 36.4922C13.3252 36.687 13.077 36.8197 12.8068 36.8734C12.5366 36.9272 12.2566 36.8996 12.002 36.7942C11.7475 36.6888 11.5299 36.5102 11.3768 36.2811C11.2238 36.0521 11.1421 35.7827 11.1421 35.5072C11.1421 35.1378 11.2889 34.7835 11.5501 34.5223C11.8113 34.261 12.1657 34.1143 12.5351 34.1143Z" fill="#131313"/>
<path d="M10.6778 67.0813C10.9533 67.0813 11.2226 67.163 11.4517 67.316C11.6807 67.4691 11.8593 67.6867 11.9647 67.9412C12.0702 68.1957 12.0977 68.4758 12.044 68.746C11.9902 69.0162 11.8576 69.2644 11.6628 69.4592C11.468 69.654 11.2198 69.7867 10.9496 69.8404C10.6794 69.8942 10.3993 69.8666 10.1447 69.7612C9.89019 69.6558 9.6726 69.4772 9.51954 69.2481C9.36648 69.0191 9.28479 68.7498 9.28479 68.4743C9.28479 68.1048 9.43156 67.7505 9.69279 67.4893C9.95402 67.228 10.3084 67.0813 10.6778 67.0813Z" fill="#131313"/>
<path d="M86.0529 80.5466C86.3284 80.5466 86.5977 80.6283 86.8268 80.7814C87.0559 80.9344 87.2344 81.152 87.3398 81.4066C87.4453 81.6611 87.4728 81.9412 87.4191 82.2114C87.3654 82.4816 87.2326 82.7298 87.0378 82.9246C86.843 83.1194 86.5948 83.2521 86.3246 83.3058C86.0544 83.3596 85.7744 83.332 85.5198 83.2266C85.2653 83.1211 85.0477 82.9426 84.8947 82.7135C84.7416 82.4844 84.6599 82.2151 84.6599 81.9396C84.6599 81.5702 84.8067 81.2159 85.0679 80.9546C85.3291 80.6934 85.6835 80.5466 86.0529 80.5466Z" fill="#131313"/>
<path d="M45.5021 89.2139C45.7776 89.2139 46.0469 89.2956 46.276 89.4486C46.5051 89.6017 46.6836 89.8192 46.7891 90.0738C46.8945 90.3283 46.9221 90.6084 46.8683 90.8786C46.8146 91.1488 46.682 91.397 46.4871 91.5918C46.2923 91.7866 46.0441 91.9193 45.7739 91.9731C45.5037 92.0268 45.2236 91.9992 44.9691 91.8938C44.7145 91.7884 44.4969 91.6098 44.3439 91.3807C44.1908 91.1517 44.1091 90.8823 44.1091 90.6068C44.1091 90.2374 44.2559 89.8831 44.5171 89.6219C44.7784 89.3606 45.1327 89.2139 45.5021 89.2139Z" fill="#131313"/>
</g>
<defs>
<clipPath id="clip0_39_336">
<rect width="100" height="100" fill="white"/>
</clipPath>
</defs>
</svg>
