<svg width="100" height="100" viewBox="0 0 100 100" fill="none" xmlns="http://www.w3.org/2000/svg">
<g clip-path="url(#clip0_39_305)">
<path d="M37.4534 80.9601C38.8537 81.7777 40.1663 82.7369 41.3707 83.8227C43.9667 80.8363 45.5028 77.0754 45.7399 73.1255H38.6587C38.5755 75.7762 38.1708 78.407 37.4534 80.9601Z" fill="#131313"/>
<path d="M26.756 63.9349V54.2924C24.0441 54.895 21.6335 58.059 20.2775 62.4283C22.3285 63.3171 24.5233 63.8275 26.756 63.9349Z" fill="#131313"/>
<path d="M41.3707 60.4696C40.2052 61.6024 38.8866 62.566 37.4534 63.3322C38.1196 65.8917 38.4738 68.5223 38.508 71.1668H45.7399C45.5028 67.2168 43.9667 63.456 41.3707 60.4696Z" fill="#131313"/>
<path d="M28.7147 54.2924V63.9349C30.9675 63.849 33.176 63.2841 35.1933 62.2776C33.8373 57.9083 31.4267 54.895 28.7147 54.2924Z" fill="#131313"/>
<path d="M35.7959 64.2362C33.5431 65.1753 31.1504 65.7353 28.7147 65.8935V71.1668H36.6999C36.6511 68.8306 36.348 66.5067 35.7959 64.2362Z" fill="#131313"/>
<path d="M26.7561 65.743C24.3125 65.6407 21.9101 65.0784 19.6749 64.0857C19.0583 66.3437 18.7542 68.6756 18.7709 71.0163H26.7561V65.743Z" fill="#131313"/>
<path d="M36.8506 61.3737C37.9758 60.6673 39.0347 59.8604 40.0145 58.9631C38.0577 57.1562 35.7498 55.7715 33.2346 54.8951C34.8924 56.7691 36.1259 58.979 36.8506 61.3737Z" fill="#131313"/>
<path d="M18.3187 27.9261C19.8372 27.9261 21.2934 27.3229 22.3671 26.2492C23.4408 25.1755 24.044 23.7193 24.044 22.2009C24.044 20.6824 23.4408 19.2262 22.3671 18.1525C21.2934 17.0788 19.8372 16.4756 18.3187 16.4756C16.7841 16.5072 15.3235 17.1412 14.2523 18.2406C13.1811 19.34 12.5852 20.8166 12.5935 22.3515C12.5953 23.0959 12.7457 23.8323 13.0359 24.5177C13.3262 25.2031 13.7504 25.8237 14.2837 26.3429C14.817 26.8622 15.4486 27.2697 16.1415 27.5416C16.8344 27.8134 17.5746 27.9442 18.3187 27.9261Z" fill="#131313"/>
<path d="M22.0855 55.0458C19.5703 55.9221 17.2624 57.3068 15.3055 59.1137C16.265 60.0351 17.3266 60.8439 18.4695 61.5244L19.8255 58.3604C20.4718 57.1862 21.2285 56.0763 22.0855 55.0458Z" fill="#131313"/>
<path d="M18.0175 63.3322C16.6172 62.5146 15.3046 61.5554 14.1002 60.4696C11.5042 63.456 9.96807 67.2168 9.73096 71.1668H16.8122C16.9695 68.5235 17.3731 65.9006 18.0175 63.3322Z" fill="#131313"/>
<path d="M19.6749 80.0561C21.9278 79.117 24.3204 78.557 26.7561 78.3988V73.1255H18.7709C18.9041 75.4545 19.2063 77.7708 19.6749 80.0561Z" fill="#131313"/>
<path d="M36.6999 72.9749H28.7147V78.2481C31.1583 78.3505 33.5607 78.9127 35.7959 79.9055C36.358 77.6368 36.6613 75.3118 36.6999 72.9749Z" fill="#131313"/>
<path d="M18.0175 80.9601C17.3512 78.4006 16.9971 75.77 16.9628 73.1255H9.88159C10.0489 77.091 11.5941 80.874 14.2509 83.8227C15.3331 82.6597 16.6072 81.6914 18.0175 80.9601Z" fill="#131313"/>
<path d="M49.5064 47.8139C49.7266 48.0329 50.0245 48.1558 50.335 48.1558C50.6456 48.1558 50.9435 48.0329 51.1637 47.8139L52.2183 46.7593C52.4373 46.5391 52.5602 46.2412 52.5602 45.9306C52.5602 45.6201 52.4373 45.3222 52.2183 45.102L43.7811 36.6647L35.3439 28.2275C35.1237 28.0085 34.8257 27.8856 34.5152 27.8856C34.2047 27.8856 33.9068 28.0085 33.6866 28.2275L32.6319 29.2821C32.4129 29.5023 32.29 29.8003 32.29 30.1108C32.29 30.4214 32.4129 30.7193 32.6319 30.9395C32.4812 30.9395 45.5891 44.0473 49.5064 47.8139Z" fill="#131313"/>
<path d="M42.4252 50.0738C42.5876 50.252 42.7854 50.3943 43.0059 50.4917C43.2264 50.5891 43.4648 50.6394 43.7059 50.6394C43.947 50.6394 44.1854 50.5891 44.4059 50.4917C44.6264 50.3943 44.8242 50.252 44.9865 50.0738L47.0958 47.9645L32.4814 33.35L30.2214 35.4593C30.0432 35.6216 29.9009 35.8194 29.8035 36.0399C29.7061 36.2604 29.6558 36.4989 29.6558 36.7399C29.6558 36.981 29.7061 37.2194 29.8035 37.4399C29.9009 37.6604 30.0432 37.8582 30.2214 38.0206L42.4252 50.0738Z" fill="#131313"/>
<path d="M66.833 30.4874C67.0532 30.7064 67.3511 30.8293 67.6616 30.8293C67.9721 30.8293 68.2701 30.7064 68.4903 30.4874L69.5449 29.4328C69.7639 29.2126 69.8868 28.9146 69.8868 28.6041C69.8868 28.2936 69.7639 27.9956 69.5449 27.7754L52.5198 10.901C52.2996 10.682 52.0017 10.5591 51.6912 10.5591C51.3806 10.5591 51.0827 10.682 50.8625 10.901L49.8078 11.9556C49.5889 12.1758 49.4659 12.4737 49.4659 12.7843C49.4659 13.0948 49.5889 13.3927 49.8078 13.6129C52.9718 16.7769 63.669 27.3234 66.833 30.4874Z" fill="#131313"/>
<path d="M64.2717 30.7886L49.6572 16.1741L37.604 28.2273L52.2185 42.8418L64.2717 30.7886Z" fill="#131313"/>
<path d="M71.6543 23.2554C71.8325 23.0931 71.9748 22.8953 72.0722 22.6748C72.1696 22.4543 72.2199 22.2159 72.2199 21.9748C72.2199 21.7337 72.1696 21.4953 72.0722 21.2748C71.9748 21.0543 71.8325 20.8565 71.6543 20.6941L59.4504 8.4903C59.288 8.31212 59.0903 8.16978 58.8697 8.07239C58.6492 7.975 58.4108 7.92468 58.1697 7.92468C57.9287 7.92468 57.6903 7.975 57.4698 8.07239C57.2492 8.16978 57.0515 8.31212 56.8891 8.4903L54.7798 10.5996L69.3943 25.2141L71.6543 23.2554Z" fill="#131313"/>
<path d="M88.2275 61.2231L62.3131 35.4594L57.0398 40.7326L82.9542 66.647C83.2946 67.0034 83.7038 67.2871 84.157 67.481C84.6101 67.6748 85.0979 67.7747 85.5908 67.7747C86.0837 67.7747 86.5715 67.6748 87.0246 67.481C87.4778 67.2871 87.887 67.0034 88.2275 66.647C88.8824 65.8953 89.2432 64.932 89.2432 63.935C89.2432 62.938 88.8824 61.9747 88.2275 61.2231Z" fill="#131313"/>
<path d="M71.9555 71.3177C71.9555 70.5727 71.7346 69.8444 71.3207 69.225C70.9068 68.6056 70.3186 68.1228 69.6303 67.8377C68.9421 67.5526 68.1847 67.4781 67.454 67.6234C66.7234 67.7687 66.0522 68.1275 65.5255 68.6542C64.9987 69.181 64.64 69.8522 64.4946 70.5828C64.3493 71.3135 64.4239 72.0708 64.709 72.7591C64.9941 73.4473 65.4768 74.0356 66.0963 74.4495C66.7157 74.8634 67.4439 75.0843 68.1889 75.0843C69.183 75.0687 70.1321 74.6669 70.8351 73.9639C71.5382 73.2608 71.94 72.3118 71.9555 71.3177Z" fill="#131313"/>
<path d="M79.9407 11.0516C80.2089 11.0516 80.4711 11.1312 80.6941 11.2802C80.9171 11.4292 81.0909 11.6409 81.1935 11.8887C81.2961 12.1365 81.323 12.4091 81.2706 12.6722C81.2183 12.9352 81.0892 13.1768 80.8995 13.3664C80.7099 13.5561 80.4683 13.6852 80.2053 13.7375C79.9422 13.7899 79.6696 13.763 79.4218 13.6604C79.174 13.5578 78.9623 13.3839 78.8133 13.161C78.6643 12.938 78.5847 12.6758 78.5847 12.4076C78.5847 12.048 78.7276 11.7031 78.9819 11.4488C79.2362 11.1945 79.5811 11.0516 79.9407 11.0516Z" fill="#131313"/>
<path d="M87.4741 35.4594C87.7423 35.4594 88.0044 35.5389 88.2274 35.6879C88.4504 35.8369 88.6242 36.0487 88.7268 36.2964C88.8294 36.5442 88.8563 36.8168 88.804 37.0799C88.7516 37.3429 88.6226 37.5845 88.4329 37.7742C88.2433 37.9638 88.0017 38.0929 87.7386 38.1453C87.4756 38.1976 87.2029 38.1707 86.9551 38.0681C86.7074 37.9655 86.4956 37.7917 86.3466 37.5687C86.1976 37.3457 86.118 37.0835 86.118 36.8153C86.118 36.4557 86.2609 36.1108 86.5152 35.8565C86.7695 35.6022 87.1144 35.4594 87.4741 35.4594Z" fill="#131313"/>
<path d="M34.7413 10.1475C35.0095 10.1475 35.2716 10.227 35.4946 10.376C35.7176 10.525 35.8914 10.7368 35.994 10.9845C36.0967 11.2323 36.1235 11.5049 36.0712 11.768C36.0189 12.031 35.8897 12.2726 35.7001 12.4623C35.5104 12.6519 35.2688 12.7811 35.0058 12.8334C34.7428 12.8857 34.4701 12.8588 34.2224 12.7562C33.9746 12.6536 33.7628 12.4798 33.6138 12.2568C33.4648 12.0338 33.3853 11.7716 33.3853 11.5035C33.3853 11.1438 33.5281 10.7989 33.7824 10.5446C34.0367 10.2903 34.3816 10.1475 34.7413 10.1475Z" fill="#131313"/>
<path d="M13.9496 42.9926C14.6985 42.9926 15.3056 42.3855 15.3056 41.6366C15.3056 40.8877 14.6985 40.2806 13.9496 40.2806C13.2007 40.2806 12.5936 40.8877 12.5936 41.6366C12.5936 42.3855 13.2007 42.9926 13.9496 42.9926Z" fill="#131313"/>
<path d="M56.437 56.2511C56.7052 56.2511 56.9674 56.3306 57.1904 56.4796C57.4133 56.6286 57.5872 56.8404 57.6898 57.0882C57.7924 57.3359 57.8193 57.6086 57.7669 57.8716C57.7146 58.1347 57.5855 58.3763 57.3958 58.5659C57.2062 58.7555 56.9646 58.8847 56.7015 58.937C56.4385 58.9893 56.1659 58.9625 55.9181 58.8598C55.6703 58.7572 55.4586 58.5834 55.3096 58.3604C55.1606 58.1374 55.0811 57.8753 55.0811 57.6071C55.0811 57.2474 55.2239 56.9025 55.4782 56.6482C55.7325 56.3939 56.0774 56.2511 56.437 56.2511Z" fill="#131313"/>
<path d="M52.9381 82.0033C52.9393 81.2544 52.3331 80.6463 51.5842 80.6452C50.8353 80.644 50.2273 81.2501 50.2261 81.999C50.225 82.7479 50.8311 83.3559 51.58 83.3571C52.3289 83.3583 52.9369 82.7522 52.9381 82.0033Z" fill="#131313"/>
<path d="M86.8596 82.0106C86.8609 81.2617 86.2549 80.6535 85.506 80.6522C84.7571 80.6509 84.1489 81.257 84.1476 82.0058C84.1463 82.7547 84.7523 83.3629 85.5012 83.3642C86.2501 83.3655 86.8583 82.7595 86.8596 82.0106Z" fill="#131313"/>
<path d="M76.6261 88.1919H35.7959C37.3979 87.417 38.8715 86.4007 40.1651 85.1786C39.2057 84.2573 38.1442 83.4485 37.0012 82.768C36.4048 84.714 35.4882 86.5471 34.2892 88.1919H31.7279C33.4067 86.3908 34.6444 84.2247 35.3439 81.864C33.2953 80.9443 31.1038 80.3836 28.8653 80.2067V88.1919H26.9067V80.2067C24.6539 80.2925 22.4453 80.8575 20.4281 81.864C21.1275 84.2247 22.3653 86.3908 24.044 88.1919H21.4827C20.2837 86.5471 19.3672 84.714 18.7708 82.768C17.6456 83.4744 16.5866 84.2813 15.6068 85.1786C16.9004 86.4007 18.374 87.417 19.9761 88.1919H11.8402C11.6004 88.1919 11.3705 88.2872 11.201 88.4567C11.0314 88.6262 10.9362 88.8562 10.9362 89.0959C10.9362 89.3357 11.0314 89.5656 11.201 89.7351C11.3705 89.9046 11.6004 89.9999 11.8402 89.9999H76.7768C77.0107 89.9825 77.2307 89.8817 77.3966 89.7158C77.5625 89.5499 77.6634 89.3299 77.6808 89.0959C77.6808 88.6439 77.0781 88.1919 76.6261 88.1919Z" fill="#131313"/>
</g>
<defs>
<clipPath id="clip0_39_305">
<rect width="100" height="100" fill="white"/>
</clipPath>
</defs>
</svg>
