<svg width="100" height="100" viewBox="0 0 100 100" fill="none" xmlns="http://www.w3.org/2000/svg">
<path d="M87.3973 92.9325C87.3927 91.863 86.9689 90.838 86.2169 90.0775C85.465 89.317 84.4448 88.8817 83.3755 88.865H17.7123C16.635 88.8698 15.6032 89.2999 14.8414 90.0616C14.0797 90.8234 13.6496 91.8552 13.6448 92.9325C13.6472 94.0105 14.0765 95.0437 14.8388 95.8059C15.6011 96.5682 16.6342 96.9975 17.7123 96.9999H83.3755C84.4456 96.9856 85.4671 96.551 86.2195 95.79C86.972 95.029 87.395 94.0026 87.3973 92.9325Z" stroke="white" stroke-width="2.71" stroke-linecap="round" stroke-linejoin="round"/>
<path d="M84.0412 86.1564C84.0412 85.4308 83.753 84.7348 83.2399 84.2217C82.7268 83.7086 82.0309 83.4204 81.3053 83.4204H19.6274C18.9018 83.4204 18.2059 83.7086 17.6928 84.2217C17.1797 84.7348 16.8915 85.4308 16.8915 86.1564C16.8915 86.882 17.1797 87.5779 17.6928 88.091C18.2059 88.6041 18.9018 88.8923 19.6274 88.8923H81.3235C82.046 88.8875 82.7372 88.5972 83.2463 88.0846C83.7555 87.572 84.0413 86.8789 84.0412 86.1564Z" stroke="white" stroke-width="2.71" stroke-linecap="round" stroke-linejoin="round"/>
<path d="M25.3091 39.8182V80.0826" stroke="white" stroke-width="2.71" stroke-linecap="round" stroke-linejoin="round"/>
<path d="M28.6652 36.462H21.953V83.4477H28.6652V36.462Z" stroke="white" stroke-width="2.71" stroke-linecap="round" stroke-linejoin="round"/>
<path d="M42.0897 39.8182V80.0826" stroke="white" stroke-width="2.71" stroke-linecap="round" stroke-linejoin="round"/>
<path d="M42.0897 39.8182V80.0826" stroke="white" stroke-width="2.71" stroke-linecap="round" stroke-linejoin="round"/>
<path d="M45.4459 36.462H38.7336V83.4477H45.4459V36.462Z" stroke="white" stroke-width="2.71" stroke-linecap="round" stroke-linejoin="round"/>
<path d="M62.2173 39.8182V80.0826" stroke="white" stroke-width="2.71" stroke-linecap="round" stroke-linejoin="round"/>
<path d="M58.8612 39.8182V80.0826" stroke="white" stroke-width="2.71" stroke-linecap="round" stroke-linejoin="round"/>
<path d="M62.2173 36.462H55.5051V83.4477H62.2173V36.462Z" stroke="white" stroke-width="2.71" stroke-linecap="round" stroke-linejoin="round"/>
<path d="M75.6418 39.8182V80.0826" stroke="white" stroke-width="2.71" stroke-linecap="round" stroke-linejoin="round"/>
<path d="M78.9979 36.462H72.2856V83.4477H78.9979V36.462Z" stroke="white" stroke-width="2.71" stroke-linecap="round" stroke-linejoin="round"/>
<path d="M87.3973 33.106C87.3949 32.2166 87.0405 31.3644 86.4117 30.7355C85.7828 30.1066 84.9306 29.7523 84.0412 29.7499H16.9188C16.0287 29.7499 15.1751 30.1035 14.5457 30.7329C13.9163 31.3623 13.5627 32.2159 13.5627 33.106C13.5651 33.9953 13.9195 34.8476 14.5483 35.4765C15.1772 36.1053 16.0295 36.4597 16.9188 36.4621H84.0412C84.9298 36.4573 85.7807 36.1022 86.409 35.4738C87.0374 34.8455 87.3925 33.9946 87.3973 33.106Z" stroke="white" stroke-width="2.71" stroke-linecap="round" stroke-linejoin="round"/>
<path d="M53.143 4.60636C52.4343 3.90463 51.4773 3.51099 50.48 3.51099C49.4827 3.51099 48.5256 3.90463 47.817 4.60636L20.2749 26.3938H80.685L53.143 4.60636Z" stroke="white" stroke-width="2.71" stroke-linecap="round" stroke-linejoin="round"/>
<path d="M54.8496 21.3924C57.6635 18.9789 57.988 14.7414 55.5746 11.9275C53.1611 9.1137 48.9236 8.78914 46.1098 11.2026C43.2959 13.616 42.9714 17.8536 45.3848 20.6674C47.7983 23.4812 52.0358 23.8058 54.8496 21.3924Z" stroke="white" stroke-width="2.71" stroke-linecap="round" stroke-linejoin="round"/>
<path d="M18.6242 26.3938H82.3905C82.8348 26.3962 83.2602 26.5737 83.5744 26.8879C83.8886 27.2021 84.0662 27.6275 84.0686 28.0719C84.0662 28.5162 83.8886 28.9416 83.5744 29.2558C83.2602 29.5699 82.8348 29.7475 82.3905 29.7499H18.6242C18.1799 29.7475 17.7545 29.5699 17.4403 29.2558C17.1261 28.9416 16.9486 28.5162 16.9462 28.0719C16.9486 27.6275 17.1261 27.2021 17.4403 26.8879C17.7545 26.5737 18.1799 26.3962 18.6242 26.3938Z" stroke="white" stroke-width="2.71" stroke-linecap="round" stroke-linejoin="round"/>
</svg>
